<svg version="1.1" xmlns="http://www.w3.org/2000/svg" xmlns:xlink="http://www.w3.org/1999/xlink" width="48" height="48"><defs><linearGradient x1="13.2931" y1="15.43448" x2="55.213" y2="53.07162" gradientUnits="userSpaceOnUse" id="color-1"><stop offset="0" stop-color="#000000" stop-opacity="0"></stop><stop offset="1" stop-color="#000000" stop-opacity="0"></stop></linearGradient><filter id="dropshadow-base"><feColorMatrix type="matrix" values="0 0 0 0 0  0 0 0 0 0  0 0 0 0 0  0 0 0 .8 0"></feColorMatrix> <feOffset dx="0" dy="1"></feOffset> <feGaussianBlur stdDeviation="1"></feGaussianBlur> <feComposite in="SourceGraphic"></feComposite></filter><filter id="dropshadow-banner" x="-10%" y="-10%" width="120%" height="130%"><feColorMatrix type="matrix" values="0 0 0 0 0  0 0 0 0 0  0 0 0 0 0  0 0 0 .4 0"></feColorMatrix> <feOffset dx="0" dy="1"></feOffset> <feGaussianBlur stdDeviation="0.5"></feGaussianBlur> <feComposite in="SourceGraphic"></feComposite></filter></defs><g fill="none" fill-rule="nonzero" stroke="none" stroke-width="none" stroke-linecap="butt" stroke-linejoin="miter" stroke-miterlimit="10" stroke-dasharray="" stroke-dashoffset="0" font-family="none" font-weight="none" font-size="none" text-anchor="none" style="mix-blend-mode: normal"><g fill="#000000" stroke-width="1" font-family="Roboto, sans-serif" font-weight="400" font-size="14" text-anchor="start"></g><path d="M5,45c-1.10457,0 -2,-0.89543 -2,-2v-38c0,-1.10457 0.89543,-2 2,-2h38c1.10457,0 2,0.89543 2,2v38c0,1.10457 -0.89543,2 -2,2z" id="base 1 1" fill="#0f4783" stroke-width="1" filter="url(#dropshadow-base)"></path><path d="M31.49483,19.71724l-4.28276,-4.28276h-2.14138l2.14138,4.28276l-1.07069,0l-4.28276,-4.28276h-2.14138l2.14138,4.28276l-1.07069,0l-4.28276,-4.28276h-1.07069c-1.18311,0 -2.13067,0.95827 -2.13067,2.14138l-0.01071,12.84828c0,0.59156 0.23957,1.1269 0.62702,1.51436l13.0615,13.0615h16.01838c1.10457,0 2,-0.89543 2,-2l0,-17.27243l-10.2931,-10.2931h-4.28276l2.14138,4.28276z" fill="url(#color-1)" stroke-width="1"></path><path d="M30.42414,15.43448l2.14138,4.28276h-3.21207l-2.14138,-4.28276h-2.14138l2.14138,4.28276h-3.21207l-2.14138,-4.28276h-2.14138l2.14138,4.28276h-3.21207l-2.14138,-4.28276h-1.07069c-1.18311,0 -2.13067,0.95827 -2.13067,2.14138l-0.01071,12.84828c0,1.18311 0.95827,2.14138 2.14138,2.14138h17.13104c1.18311,0 2.14138,-0.95827 2.14138,-2.14138v-14.98966z" fill="#ffffff" stroke-width="0"></path></g></svg>